<?xml version="1.0" ?><svg data-name="Layer 1" id="Layer_1" viewBox="0 0 272 272" xmlns="http://www.w3.org/2000/svg"><defs><style>.cls-1{fill:#d7d8da;}.cls-2{fill:#efefef;}.cls-3{fill:#aed582;}</style></defs><title/><path class="cls-1" d="M139.63,196l-25.69-6.88L161.26,12.53c1.29-4.83,8-6.13,11.63-2.28h0c8.05,8.44,11.19,19.87,8.35,30.44Z"/><path class="cls-2" d="M133.37,196l25.69-6.88L111.74,12.53c-1.29-4.83-8-6.13-11.63-2.28h0C92.06,18.7,88.92,30.12,91.76,40.7Z"/><path class="cls-3" d="M135.8,168l-9.7.52-25.44,1.34c-27.35,1.45-50.46,20-57.39,46L40.46,226.4c-4.1,15.42,5.3,31.34,21,35.58a58.11,58.11,0,0,0,15.17,2c25,0,47.77-16.35,54.4-41.26l4.74-17.8,9.7-36.42Zm-28,48.47C103,234.71,84.7,245.69,67.08,240.94c-2.47-.66-4.44-4.34-3.39-8.28l2.81-10.57a40.39,40.39,0,0,1,36.77-30.31l11.3-.6Z"/><path class="cls-3" d="M231.54,226.4l-2.81-10.57c-6.93-26-30-44.52-57.39-46l-25.44-1.34-9.7-.52-9.7.52,9.7,36.42,4.74,17.8c8,29.88,39.11,47.46,69.58,39.24a29.48,29.48,0,0,0,22-28.25A28.46,28.46,0,0,0,231.54,226.4Zm-26.62,14.55c-17.62,4.75-35.9-6.23-40.76-24.47l-6.73-25.29,11.29.6a40.41,40.41,0,0,1,36.78,30.31l2.81,10.57C209.35,236.6,207.38,240.28,204.92,240.94Z"/><circle class="cls-3" cx="135.6" cy="146.89" r="6"/></svg>